<svg width="71" height="80" viewBox="0 0 71 80" fill="#FFFFFF" xmlns="http://www.w3.org/2000/svg">
<path id="d" d="M 60.1 13.9 C 55.6 11.8 50.7 10.3 45.7 9.4 C 45.6 9.4 45.5 9.4 45.4 9.5 C 44.8 10.6 44.1 12.1 43.6 13.2 C 38.2 12.4 32.7 12.4 27.4 13.2 C 26.9 12.1 26.2 10.6 25.6 9.5 C 25.5 9.4 25.4 9.4 25.3 9.4 C 20.3 10.3 15.4 11.8 10.9 13.9 C 10.8 13.9 10.8 13.9 10.8 14 C 1.6 27.7 -0.9 41.1 0.3 54.4 C 0.3 54.5 0.3 54.5 0.4 54.6 C 6.5 59 12.3 61.7 18.1 63.5 C 18.2 63.5 18.3 63.5 18.4 63.4 C 19.7 61.6 20.9 59.6 22 57.5 C 22.1 57.4 22 57.3 21.9 57.2 C 19.9 56.5 18.1 55.6 16.3 54.6 C 16.2 54.5 16.2 54.3 16.3 54.2 C 16.7 53.9 17.1 53.6 17.4 53.3 C 17.5 53.3 17.6 53.3 17.6 53.3 C 29.3 58.6 41.8 58.6 53.3 53.3 C 53.4 53.3 53.5 53.3 53.6 53.3 C 53.9 53.6 54.3 53.9 54.7 54.2 C 54.8 54.3 54.8 54.5 54.6 54.6 C 52.9 55.6 51 56.5 49.1 57.2 C 49 57.3 48.9 57.4 49 57.5 C 50 59.6 51.3 61.6 52.6 63.4 C 52.7 63.5 52.8 63.5 52.8 63.5 C 58.6 61.7 64.5 59 70.6 54.6 C 70.7 54.5 70.7 54.5 70.7 54.4 C 72.2 39.1 68.2 25.8 60.2 14 C 60.2 13.9 60.1 13.9 60.1 13.9 Z M 23.7 46.3 C 20.2 46.3 17.3 43.1 17.3 39.2 C 17.3 35.2 20.2 32 23.7 32 C 27.3 32 30.2 35.3 30.1 39.2 C 30.1 43.1 27.3 46.3 23.7 46.3 Z M 47.3 46.3 C 43.8 46.3 40.9 43.1 40.9 39.2 C 40.9 35.2 43.8 32 47.3 32 C 50.9 32 53.8 35.3 53.7 39.2 C 53.7 43.1 50.9 46.3 47.3 46.3 Z" fill="rgb(255, 255, 255)"/>
</svg>