<?xml version="1.0" encoding="UTF-8" standalone="no"?>
<svg xmlns="http://www.w3.org/2000/svg" viewBox="0 0 512 512">
	<path
		style="fill: rgb(255, 255, 255)"
		d="M 256 49.5 c 67.3 0 75.2 0.3 101.8 1.5 c 24.6 1.1 37.9 5.2 46.8 8.7 C 415.5 63.7 425.4 70.1 433.5 78.5 C 441.9 86.6 448.4 96.5 452.4 107.4 c 3.4 8.9 7.6 22.2 8.7 46.8 c 1.2 26.6 1.5 34.5 1.5 101.8 s -0.3 75.2 -1.5 101.8 c -1.1 24.6 -5.2 37.9 -8.7 46.8 C 443.9 426.6 426.5 443.9 404.6 452.4 c -8.9 3.4 -22.2 7.6 -46.8 8.7 c -26.6 1.2 -34.5 1.5 -101.8 1.5 s -75.2 -0.3 -101.8 -1.5 c -24.6 -1.1 -37.9 -5.2 -46.8 -8.7 C 96.5 448.4 86.6 441.9 78.5 433.5 C 70.1 425.4 63.6 415.5 59.6 404.6 c -3.5 -8.9 -7.6 -22.2 -8.7 -46.8 c -1.2 -26.6 -1.5 -34.5 -1.5 -101.8 s 0.3 -75.2 1.5 -101.8 c 1.1 -24.6 5.2 -37.9 8.7 -46.8 C 63.6 96.5 70.1 86.6 78.5 78.5 C 86.6 70.1 96.5 63.7 107.4 59.6 c 8.9 -3.5 22.2 -7.6 46.8 -8.7 c 26.6 -1.2 34.5 -1.5 101.8 -1.5 m 0 -45.4 c -68.4 0 -77 0.3 -103.9 1.5 c -26.8 1.2 -45.1 5.5 -61.2 11.7 C 74.2 23.6 58.9 33.5 46.4 46.4 C 33.5 58.9 23.6 74.2 17.3 91 C 11.1 107 6.8 125.3 5.6 152.1 C 4.4 179 4.1 187.6 4.1 256 S 4.4 333 5.6 359.9 c 1.2 26.8 5.5 45.1 11.7 61.2 C 23.6 437.8 33.6 453.1 46.4 465.6 C 59 478.5 74.2 488.4 91 494.7 c 16 6.2 34.3 10.5 61.2 11.7 c 26.9 1.2 35.4 1.5 103.9 1.5 s 77 -0.3 103.9 -1.5 c 26.8 -1.2 45.1 -5.5 61.2 -11.7 C 454.9 481.6 481.6 454.9 494.7 421 c 6.2 -16 10.5 -34.3 11.7 -61.2 c 1.2 -26.9 1.5 -35.4 1.5 -103.9 s -0.3 -77 -1.5 -103.9 c -1.2 -26.8 -5.5 -45.1 -11.7 -61.2 C 488.4 74.2 478.5 58.9 465.6 46.4 C 453.1 33.5 437.8 23.6 421 17.3 C 405 11.1 386.7 6.8 359.9 5.6 C 333 4.4 324.4 4.1 256 4.1 h 0 Z"/>
	<path
		style="fill: rgb(255, 255, 255)"
		d="M 256 126.6 A 129.4 129.4 0 1 0 385.4 256 A 129.4 129.4 0 0 0 256 126.6 Z m 0 213.3 A 84 84 0 1 1 340 256 A 84 84 0 0 1 256 340 Z"/>
	<circle
		style="fill: rgb(255, 255, 255)"
		cx="390.5" cy="121.5" r="30.2"/>
</svg>