<?xml version="1.0" encoding="UTF-8"?>
<svg xmlns="http://www.w3.org/2000/svg" xml:space="preserve" viewBox="0 0 248 204">
  <path fill="rgb(255, 255, 255)" d="M 221.9 51.3 c 0.1 2.2 0.1 4.3 0.1 6.5 c 0 66.7 -50.8 143.7 -143.7 143.7 v 0 c -27.4 0 -54.3 -7.8 -77.4 -22.6 c 4 0.5 8 0.7 12 0.7 c 22.7 0 44.8 -7.6 62.7 -21.7 c -21.6 -0.4 -40.6 -14.5 -47.2 -35.1 c 7.6 1.5 15.4 1.2 22.8 -0.9 c -23.6 -4.8 -40.5 -25.5 -40.5 -49.5 v -0.6 c 7 3.9 14.9 6.1 22.9 6.3 C 11.6 63.3 4.7 33.8 18.1 10.7 c 25.6 31.6 63.5 50.7 104.1 52.8 c -4.1 -17.5 1.5 -35.9 14.6 -48.3 c 20.3 -19.1 52.3 -18.1 71.5 2.2 c 11.3 -2.2 22.1 -6.4 32.1 -12.3 c -3.8 11.7 -11.7 21.6 -22.2 27.9 c 10 -1.2 19.8 -3.9 29 -8 c -6.8 10.2 -15.3 19 -25.2 26.2 z"/>
</svg>